# xmcd
#
# Track frame offsets:
#	150
#	1065
#	20413
#	41528
#	55771
#	72713
#	92705
#	109668
#	131369
#	144675
#	170267
#	182297
#	201289
#	220833
#	241003
#	260292
#	260955
#
# Disc length: 3734 seconds
#
# Revision: 0
# Processed by: cddbd v1.5.2PL0 Copyright (c) Steve Scherf et al.
# Submitted via: EasyCDDAExtractor 11.5.3.1
#
DISCID=e90e9411
DTITLE=Mack and the Sunliners - Th Nashwille Album
DYEAR=2007
DGENRE=Country
TTITLE0=Howdy by Carl Craft
TTITLE1=Get A Little Closer
TTITLE2=Average Guy
TTITLE3=Some Day Sunday Comes
TTITLE4=Sorry, No Onions
TTITLE5=Danger On The Edge
TTITLE6=They Called Him Jack
TTITLE7=Con Algo Hay Que Empezar
TTITLE8=My God
TTITLE9=Invitation To The Dark
TTITLE10=The Treehouse Song
TTITLE11=For My Dad
TTITLE12=So Drunk On You
TTITLE13=My Girl Is On The Run
TTITLE14=Finally Fifty
TTITLE15=Carl Craft Says Good Bye
TTITLE16=Bonus Track: Melodie D'Amoure
EXTD=
EXTT0=
EXTT1=
EXTT2=
EXTT3=
EXTT4=
EXTT5=
EXTT6=
EXTT7=
EXTT8=
EXTT9=
EXTT10=
EXTT11=
EXTT12=
EXTT13=
EXTT14=
EXTT15=
EXTT16=
PLAYORDER=
